<?xml version="1.0" encoding="utf-8"?>
<!-- Generator: Adobe Illustrator 28.0.0, SVG Export Plug-In . SVG Version: 6.00 Build 0)  -->
<svg version="1.1" id="Camada_1" xmlns="http://www.w3.org/2000/svg" xmlns:xlink="http://www.w3.org/1999/xlink" x="0px" y="0px"
	 viewBox="0 0 500 500" style="enable-background:new 0 0 500 500;" xml:space="preserve">
<style type="text/css">
	.st0{fill:url(#SVGID_1_);}
	.st1{fill:url(#SVGID_00000022521072699044549150000000485913914792843692_);}
	.st2{fill:url(#SVGID_00000134224045400266047520000004852775932888177057_);}
</style>
<g>
	<linearGradient id="SVGID_1_" gradientUnits="userSpaceOnUse" x1="111.3589" y1="431.7325" x2="381.8776" y2="161.2138">
		<stop  offset="0" style="stop-color:#FF2012"/>
		<stop  offset="1" style="stop-color:#FF8D5C"/>
	</linearGradient>
	<path class="st0" d="M45.55,344.89c2.45-6.32,3.25-12.97,4.01-19.63c1.12-9.91,0.35-19.93,1.92-29.83
		c2.91-18.31,8.49-35.85,14.87-53.16c12.6-34.17,27.16-67.39,47.85-97.6c14.39-21.02,30.29-40.79,49.03-58.07
		c17.44-16.08,38.5-23.67,62.08-23.93c10.76-0.12,21.04,2.51,30.38,8.15c8.98,5.42,17.94,10.93,26.11,17.49
		c9.75,7.83,12.06,20.03,6.38,31.2c-0.9,1.77-0.87,2.93,0.32,4.58c7.76,10.84,7.13,23.45-2.12,33.06
		c-11.15,11.6-22.66,22.85-34.09,34.18c-5.26,5.21-11.76,7.51-19.14,7.5c-12.63-0.03-25.27,0.07-37.9-0.07
		c-2.89-0.03-4.08,0.34-3.85,3.76c0.99,15.01,3.83,29.78,5.33,44.71c0.79,7.9,1.38,15.82,2.1,24.18
		c7.61-5.91,15.41-10.85,24.05-14.36c23.11-9.38,46.29-9.51,69.45-0.36c3.3,1.3,4.75,1.19,6.72-2.13
		c19.17-32.24,47.35-50.77,84.76-55.11c15.52-1.8,30.27-0.05,43.47,8.96c16.54,11.28,26.2,27.08,26.62,47.02
		c0.72,34.43,0.68,68.89,0.11,103.33c-0.45,26.99-16.74,47.47-42.7,56.35c-51.31,17.56-104.11,23.88-158.13,21.84
		c-65.77-2.48-127.39-19.64-184.99-51.47c-11.7-6.46-19.75-15.45-22.08-28.93c-0.03-0.19-0.37-0.33-0.56-0.5c0-1.33,0-2.66,0-3.99
		c0.67-2.13,0.67-4.26,0-6.39C45.55,345.42,45.55,345.16,45.55,344.89z"/>
	
		<linearGradient id="SVGID_00000101819873521681224140000008001332301082636938_" gradientUnits="userSpaceOnUse" x1="43.9553" y1="350.4789" x2="47.1479" y2="347.2863">
		<stop  offset="0" style="stop-color:#FF2012"/>
		<stop  offset="1" style="stop-color:#FF8D5C"/>
	</linearGradient>
	<path style="fill:url(#SVGID_00000101819873521681224140000008001332301082636938_);" d="M45.55,345.69c1.31,2.13,1.04,4.26,0,6.39
		C45.55,349.95,45.55,347.82,45.55,345.69z"/>
	
		<linearGradient id="SVGID_00000081624575776440018740000013002412424655135399_" gradientUnits="userSpaceOnUse" x1="123.3134" y1="419.7542" x2="369.9245" y2="173.1431">
		<stop  offset="0" style="stop-color:#FF2012"/>
		<stop  offset="1" style="stop-color:#FF8D5C"/>
	</linearGradient>
	<path style="fill:url(#SVGID_00000081624575776440018740000013002412424655135399_);" d="M274.53,133.63
		c3.1,5.25,2.53,8.85-0.49,11.9c-11.03,11.16-22.18,22.21-33.27,33.31c-2.09,2.09-4.69,2.99-7.56,3
		c-12.61,0.04-25.22,0.02-37.87,0.02c-0.25-1.69,1.02-2.49,1.67-3.56c2.57-4.17,2.07-8.63-1.36-11.44
		c-3.55-2.91-8.31-2.61-11.8,0.98c-5.61,5.77-7.98,13.01-9,20.79c-1.91,14.59,1.05,28.87,2.79,43.22
		c1.96,16.22,5.03,32.37,3.79,48.8c-1.35,17.81-9.76,30.78-26.86,37.47c-5.86,2.29-8.02,6.61-6.13,11.45
		c1.88,4.82,6.27,6.5,12.28,4.39c13.54-4.75,23.33-13.86,30.22-26.29c13.5-24.36,34.1-37.97,61.87-40.28
		c22.11-1.84,41.28,5.22,57.65,20.08c0.79,0.71,1.58,1.43,2.45,2.05c3.93,2.83,8.58,2.54,11.56-0.69c3.05-3.29,3.08-8.43-0.39-11.84
		c-3.11-3.06-6.55-5.83-10.07-8.43c-1.85-1.37-2.33-2.32-1.07-4.44c18.71-31.51,46.37-47.94,82.98-48.18
		c23.21-0.15,41.09,19,41.25,43.33c0.22,32.45,0.21,64.91,0,97.36c-0.13,20.83-11.47,35.72-31.61,42.45
		c-29.82,9.97-60.31,16.84-91.7,19.4c-54.53,4.45-108.3,0.93-160.88-15.29c-27.21-8.4-53.24-19.5-78.04-33.49
		c-10.37-5.85-14-14.02-11.26-25.72c2.19-9.35,3.46-18.83,3.42-28.43c-0.09-19.43,4.93-37.84,11.22-55.94
		c12.87-37.04,27.91-73.08,50.16-105.69c12.77-18.72,27.04-36.23,43.24-52.07c15.88-15.53,35.08-23.01,57.41-21.94
		c7.76,0.37,14.72,3.23,21.16,7.41c6.46,4.19,12.87,8.47,19.22,12.81c5.75,3.93,6.33,9.5,1.45,14.45
		c-8.4,8.52-16.89,16.97-25.4,25.38c-4.74,4.69-10.43,5.04-14.45,1.07c-4.05-4-3.71-9.7,0.9-14.45c2.13-2.19,4.41-4.25,6.45-6.53
		c3.67-4.09,3.69-9.17,0.2-12.47c-3.38-3.2-8.36-3.2-12.17,0.5c-6.17,5.98-12.78,11.64-14.61,20.8
		c-2.25,11.31,2.5,22.06,12.93,28.45c8.88,5.43,21.74,4.67,29.71-2.69C261.44,148.26,267.56,141.02,274.53,133.63z"/>
</g>
</svg>
