<?xml version="1.0" encoding="utf-8"?>
<!-- Generator: Adobe Illustrator 28.0.0, SVG Export Plug-In . SVG Version: 6.00 Build 0)  -->
<svg version="1.1" id="Camada_1" xmlns="http://www.w3.org/2000/svg" xmlns:xlink="http://www.w3.org/1999/xlink" x="0px" y="0px"
	 viewBox="0 0 500 188.26" style="enable-background:new 0 0 500 188.26;" xml:space="preserve">
<style type="text/css">
	.st0{display:none;fill:#FFFFFF;}
	.st1{fill:#E51F1F;}
	.st2{fill:#9B9B9B;}
</style>
<rect y="-186.41" class="st0" width="500" height="500"/>
<polygon points="251.43,37.6 158.58,37.6 169.31,16.14 262.17,16.14 "/>
<polygon points="190.02,29.36 163.11,83.01 135.95,83.01 169.31,16.14 "/>
<polygon class="st1" points="235.95,68.65 226.81,87.06 207.91,89.46 193.83,68.65 "/>
<polygon points="367.03,37.6 274.17,37.6 284.91,16.14 377.77,16.14 "/>
<polygon class="st1" points="323.39,70.47 290.28,70.47 301.02,49 334.12,49 "/>
<polygon points="305.5,28.92 264.38,111.04 237.62,110.93 284.91,16.14 "/>
<polygon points="152.49,16.14 105.02,110.93 78.21,110.93 125.5,16.14 "/>
<polygon points="120.49,16.14 73.02,110.93 46.2,110.93 93.49,16.14 "/>
<polygon class="st1" points="79.84,31.6 49.65,92.21 22.83,92.21 52.84,31.6 "/>
<polygon points="454.64,16.14 407.17,110.93 380.35,110.93 427.64,16.14 "/>
<polygon points="422.47,16.14 375,110.93 348.18,110.93 395.47,16.14 "/>
<polygon class="st1" points="477.17,35.87 446.98,96.48 420.16,96.48 450.17,35.87 "/>
<polygon class="st1" points="214.88,110.93 122.03,110.93 133.97,86.98 226.83,86.98 "/>
<g>
	<path class="st1" d="M127.27,144.22v-0.04c0-4.32,3.17-8.14,7.89-8.14c2.65,0,4.3,0.76,5.87,2.09l-1.15,1.35
		c-1.19-1.06-2.59-1.8-4.79-1.8c-3.49,0-5.98,2.95-5.98,6.46v0.04c0,3.76,2.41,6.54,6.23,6.54c1.8,0,3.46-0.7,4.54-1.57v-3.91h-4.79
		v-1.6h6.5v6.28c-1.46,1.33-3.64,2.41-6.32,2.41C130.33,152.32,127.27,148.72,127.27,144.22z"/>
	<path class="st1" d="M155.92,136.19h1.66l7.17,15.86h-1.91l-1.84-4.16h-8.57l-1.87,4.16h-1.82L155.92,136.19z M160.31,146.29
		l-3.58-8.03l-3.6,8.03H160.31z"/>
	<path class="st1" d="M172.35,136.3h6.7c1.8,0,3.22,0.52,4.12,1.39c0.67,0.7,1.01,1.55,1.01,2.52v0.04c0,2.05-1.26,3.1-2.5,3.64
		c1.87,0.54,3.37,1.66,3.37,3.8v0.04c0,2.7-2.27,4.3-5.71,4.3h-7V136.3z M182.38,140.47c0-1.55-1.24-2.56-3.49-2.56h-4.79v5.42h4.66
		c2.16,0,3.62-0.94,3.62-2.81V140.47z M183.26,147.6c0-1.71-1.42-2.7-4.18-2.7h-4.97v5.56h5.29c2.41,0,3.87-1.04,3.87-2.81V147.6z"
		/>
	<path class="st1" d="M193.08,136.3h6.77c1.96,0,3.49,0.58,4.48,1.57c0.79,0.79,1.21,1.84,1.21,3.1v0.04c0,2.61-1.8,4.16-4.27,4.59
		l4.84,6.43h-2.18l-4.57-6.12h-4.5v6.12h-1.78V136.3z M199.7,144.33c2.34,0,4.05-1.21,4.05-3.24v-0.04c0-1.96-1.48-3.1-4.03-3.1
		h-4.86v6.39H199.7z"/>
	<path class="st1" d="M213.99,136.3h1.78v15.74h-1.78V136.3z"/>
	<path class="st1" d="M224.87,136.3h11.38v1.62h-9.6v5.38h8.59v1.62h-8.59v5.51h9.72v1.62h-11.49V136.3z"/>
	<path class="st1" d="M244.44,136.3h1.78v14.1h8.86v1.64h-10.64V136.3z"/>
	<path class="st1" d="M274,136.3h11.31v1.64h-9.54v5.62h8.52v1.62h-8.52v6.86H274V136.3z"/>
	<path class="st1" d="M297.27,136.19h1.66l7.17,15.86h-1.91l-1.84-4.16h-8.57l-1.87,4.16h-1.82L297.27,136.19z M301.66,146.29
		l-3.58-8.03l-3.6,8.03H301.66z"/>
	<path class="st1" d="M312.9,145.46v-9.15h1.78v9.04c0,3.42,1.78,5.31,4.81,5.31c2.9,0,4.75-1.75,4.75-5.2v-9.15h1.78v9.02
		c0,4.61-2.63,6.97-6.57,6.97C315.55,152.3,312.9,149.91,312.9,145.46z"/>
	<path class="st1" d="M339.97,136.19h1.66l7.17,15.86h-1.91l-1.84-4.16h-8.57l-1.87,4.16h-1.82L339.97,136.19z M344.36,146.29
		l-3.58-8.03l-3.6,8.03H344.36z"/>
	<path class="st1" d="M355.68,150.86l10.19-12.96h-9.85v-1.6h12.28v1.19l-10.21,12.96h10.21v1.6h-12.62V150.86z"/>
</g>
<g>
	<path class="st2" d="M126.77,170.48h5.06v0.72h-4.27v2.39h3.82v0.72h-3.82v2.45h4.32v0.72h-5.11V170.48z"/>
	<path class="st2" d="M143.47,170.48h2.43c2.2,0,3.72,1.51,3.72,3.48v0.02c0,1.97-1.52,3.5-3.72,3.5h-2.43V170.48z M144.26,171.21
		v5.54h1.64c1.77,0,2.9-1.19,2.9-2.75v-0.02c0-1.55-1.13-2.77-2.9-2.77H144.26z"/>
	<path class="st2" d="M161.18,174.55v-4.07h0.79v4.02c0,1.52,0.79,2.36,2.14,2.36c1.29,0,2.11-0.78,2.11-2.31v-4.07h0.79v4.01
		c0,2.05-1.17,3.1-2.92,3.1C162.36,177.59,161.18,176.53,161.18,174.55z"/>
	<path class="st2" d="M178.57,174v-0.02c0-1.98,1.49-3.62,3.54-3.62c1.27,0,2.04,0.44,2.73,1.11l-0.54,0.58
		c-0.6-0.56-1.24-0.96-2.2-0.96c-1.55,0-2.71,1.26-2.71,2.87v0.02c0,1.62,1.16,2.89,2.71,2.89c0.96,0,1.59-0.37,2.26-1.01l0.52,0.51
		c-0.72,0.74-1.54,1.23-2.8,1.23C180.06,177.6,178.57,176.01,178.57,174z"/>
	<path class="st2" d="M198.85,170.43h0.74l3.19,7.05h-0.85l-0.82-1.85h-3.81l-0.83,1.85h-0.81L198.85,170.43z M200.8,174.92
		l-1.59-3.57l-1.6,3.57H200.8z"/>
	<path class="st2" d="M214.16,170.48h2.43c2.2,0,3.72,1.51,3.72,3.48v0.02c0,1.97-1.52,3.5-3.72,3.5h-2.43V170.48z M214.95,171.21
		v5.54h1.64c1.77,0,2.9-1.19,2.9-2.75v-0.02c0-1.55-1.13-2.77-2.9-2.77H214.95z"/>
	<path class="st2" d="M231.67,174v-0.02c0-1.93,1.45-3.62,3.58-3.62s3.56,1.67,3.56,3.6v0.02c0,1.93-1.45,3.62-3.58,3.62
		S231.67,175.93,231.67,174z M237.99,174v-0.02c0-1.59-1.16-2.89-2.76-2.89s-2.74,1.28-2.74,2.87v0.02c0,1.59,1.16,2.89,2.76,2.89
		S237.99,175.59,237.99,174z"/>
	<path class="st2" d="M250.48,170.48h3.01c0.87,0,1.55,0.26,1.99,0.7c0.35,0.35,0.54,0.82,0.54,1.38v0.02c0,1.16-0.8,1.85-1.9,2.04
		l2.15,2.86h-0.97l-2.03-2.72h-2v2.72h-0.79V170.48z M253.42,174.05c1.04,0,1.8-0.54,1.8-1.44v-0.02c0-0.87-0.66-1.38-1.79-1.38
		h-2.16v2.84H253.42z"/>
	<path class="st2" d="M280.71,170.48h5.03v0.73h-4.24v2.5h3.79v0.72h-3.79v3.05h-0.79V170.48z"/>
	<path class="st2" d="M297.34,170.48h0.79v7h-0.79V170.48z M298.43,168.57l0.79,0.36l-1.15,0.93h-0.64L298.43,168.57z"/>
	<path class="st2" d="M309.72,176.46l0.49-0.58c0.73,0.67,1.43,0.99,2.4,0.99c0.95,0,1.56-0.5,1.56-1.19v-0.02
		c0-0.65-0.35-1.01-1.82-1.33c-1.61-0.35-2.35-0.87-2.35-2.02v-0.02c0-1.09,0.97-1.91,2.3-1.91c1.03,0,1.74,0.29,2.46,0.86
		l-0.46,0.61c-0.65-0.53-1.3-0.76-2.02-0.76c-0.92,0-1.49,0.49-1.49,1.13v0.02c0,0.66,0.35,1.04,1.9,1.36
		c1.56,0.35,2.28,0.91,2.28,1.98v0.02c0,1.2-1,1.98-2.39,1.98C311.46,177.58,310.56,177.22,309.72,176.46z"/>
	<path class="st2" d="M326.65,170.48h0.79v7h-0.79V170.48z"/>
	<path class="st2" d="M339.18,174v-0.02c0-1.98,1.49-3.62,3.54-3.62c1.27,0,2.04,0.44,2.73,1.11l-0.54,0.58
		c-0.6-0.56-1.24-0.96-2.2-0.96c-1.55,0-2.71,1.26-2.71,2.87v0.02c0,1.62,1.16,2.89,2.71,2.89c0.96,0,1.59-0.37,2.26-1.01l0.52,0.51
		c-0.72,0.74-1.54,1.23-2.8,1.23C340.67,177.6,339.18,176.01,339.18,174z"/>
	<path class="st2" d="M356.4,174v-0.02c0-1.93,1.45-3.62,3.58-3.62s3.56,1.67,3.56,3.6v0.02c0,1.93-1.45,3.62-3.58,3.62
		S356.4,175.93,356.4,174z M362.72,174v-0.02c0-1.59-1.16-2.89-2.76-2.89c-1.6,0-2.74,1.28-2.74,2.87v0.02
		c0,1.59,1.16,2.89,2.76,2.89C361.58,176.87,362.72,175.59,362.72,174z"/>
</g>
</svg>
